<svg xmlns="http://www.w3.org/2000/svg" width="400" height="400" viewBox="0 0 400 400" role="img" aria-label="Ashta Vasus">
<title>Ashta Vasus</title>
<defs>
<radialGradient id="bg" cx="50%" cy="34%" r="78%">
<stop offset="0%" stop-color="hsl(265,58%,84%)"/>
<stop offset="58%" stop-color="hsl(265,50%,58%)"/>
<stop offset="100%" stop-color="hsl(265,46%,32%)"/>
</radialGradient>
<linearGradient id="gold" x1="0" y1="0" x2="0" y2="1">
<stop offset="0%" stop-color="#ffe9b0"/><stop offset="55%" stop-color="#e8b64c"/><stop offset="100%" stop-color="#b8811f"/>
</linearGradient>
<linearGradient id="pale" x1="0" y1="0" x2="0" y2="1">
<stop offset="0%" stop-color="#fffdf6"/><stop offset="100%" stop-color="#e6dcc4"/>
</linearGradient>
<filter id="soft" x="-25%" y="-25%" width="150%" height="150%">
<feDropShadow dx="0" dy="4" stdDeviation="5" flood-color="#000" flood-opacity=".33"/>
</filter>
</defs>
<rect width="400" height="400" fill="url(#bg)"/>
<g filter="url(#soft)">
<g transform="translate(200 202)">
<g fill="url(#gold)">
<g transform="translate(0 -108)">
<path d="M-17 8 Q-17 -12 0 -14 Q17 -12 17 8 Q0 18 -17 8Z"/>
<path d="M-10 8 L-7 -6 Q0 -12 7 -6 L10 8Z" fill="#6b3d1c"/>
<path d="M0 -14 L0 -26 L7 -17Z" fill="#e8b64c"/>
</g>
<g transform="translate(76 -76)">
<path d="M-17 8 Q-17 -12 0 -14 Q17 -12 17 8 Q0 18 -17 8Z"/>
<path d="M-10 8 L-7 -6 Q0 -12 7 -6 L10 8Z" fill="#6b3d1c"/>
<path d="M0 -14 L0 -26 L7 -17Z" fill="#e8b64c"/>
</g>
<g transform="translate(108 0)">
<path d="M-17 8 Q-17 -12 0 -14 Q17 -12 17 8 Q0 18 -17 8Z"/>
<path d="M-10 8 L-7 -6 Q0 -12 7 -6 L10 8Z" fill="#6b3d1c"/>
<path d="M0 -14 L0 -26 L7 -17Z" fill="#e8b64c"/>
</g>
<g transform="translate(76 76)">
<path d="M-17 8 Q-17 -12 0 -14 Q17 -12 17 8 Q0 18 -17 8Z"/>
<path d="M-10 8 L-7 -6 Q0 -12 7 -6 L10 8Z" fill="#6b3d1c"/>
<path d="M0 -14 L0 -26 L7 -17Z" fill="#e8b64c"/>
</g>
<g transform="translate(0 108)">
<path d="M-17 8 Q-17 -12 0 -14 Q17 -12 17 8 Q0 18 -17 8Z"/>
<path d="M-10 8 L-7 -6 Q0 -12 7 -6 L10 8Z" fill="#6b3d1c"/>
<path d="M0 -14 L0 -26 L7 -17Z" fill="#e8b64c"/>
</g>
<g transform="translate(-76 76)">
<path d="M-17 8 Q-17 -12 0 -14 Q17 -12 17 8 Q0 18 -17 8Z"/>
<path d="M-10 8 L-7 -6 Q0 -12 7 -6 L10 8Z" fill="#6b3d1c"/>
<path d="M0 -14 L0 -26 L7 -17Z" fill="#e8b64c"/>
</g>
<g transform="translate(-108 0)">
<path d="M-17 8 Q-17 -12 0 -14 Q17 -12 17 8 Q0 18 -17 8Z"/>
<path d="M-10 8 L-7 -6 Q0 -12 7 -6 L10 8Z" fill="#6b3d1c"/>
<path d="M0 -14 L0 -26 L7 -17Z" fill="#e8b64c"/>
</g>
<g transform="translate(-76 -76)">
<path d="M-17 8 Q-17 -12 0 -14 Q17 -12 17 8 Q0 18 -17 8Z"/>
<path d="M-10 8 L-7 -6 Q0 -12 7 -6 L10 8Z" fill="#6b3d1c"/>
<path d="M0 -14 L0 -26 L7 -17Z" fill="#e8b64c"/>
</g>
</g>
<circle cx="0" cy="0" r="46" fill="none" stroke="url(#pale)" stroke-width="5" opacity=".9"/>
<circle cx="0" cy="0" r="18" fill="url(#pale)"/>
</g>
</g>
</svg>
