<svg xmlns="http://www.w3.org/2000/svg" width="400" height="400" viewBox="0 0 400 400" role="img" aria-label="Kamakshi">
<title>Kamakshi</title>
<defs>
<radialGradient id="bg" cx="50%" cy="34%" r="78%">
<stop offset="0%" stop-color="hsl(320,58%,84%)"/>
<stop offset="58%" stop-color="hsl(320,50%,58%)"/>
<stop offset="100%" stop-color="hsl(320,46%,32%)"/>
</radialGradient>
<linearGradient id="gold" x1="0" y1="0" x2="0" y2="1">
<stop offset="0%" stop-color="#ffe9b0"/><stop offset="55%" stop-color="#e8b64c"/><stop offset="100%" stop-color="#b8811f"/>
</linearGradient>
<linearGradient id="pale" x1="0" y1="0" x2="0" y2="1">
<stop offset="0%" stop-color="#fffdf6"/><stop offset="100%" stop-color="#e6dcc4"/>
</linearGradient>
<filter id="soft" x="-25%" y="-25%" width="150%" height="150%">
<feDropShadow dx="0" dy="4" stdDeviation="5" flood-color="#000" flood-opacity=".33"/>
</filter>
</defs>
<rect width="400" height="400" fill="url(#bg)"/>
<g filter="url(#soft)">
<g transform="translate(200 214)">
<circle cx="0" cy="-30" r="104" fill="none" stroke="url(#gold)" stroke-width="4" opacity=".55"/>
<g opacity=".95"><g transform="translate(-84 60) scale(0.72)" fill="url(#pale)">
<path d="M0 0 Q-34 -26 -30 -52 Q0 -38 0 0Z"/>
<path d="M0 0 Q34 -26 30 -52 Q0 -38 0 0Z"/>
<path d="M0 0 Q-46 -6 -54 -28 Q-16 -22 0 0Z"/>
<path d="M0 0 Q46 -6 54 -28 Q16 -22 0 0Z"/>
<path d="M0 2 Q-20 -30 0 -62 Q20 -30 0 2Z"/>
</g></g>
<g opacity=".95"><g transform="translate(84 60) scale(0.72)" fill="url(#pale)">
<path d="M0 0 Q-34 -26 -30 -52 Q0 -38 0 0Z"/>
<path d="M0 0 Q34 -26 30 -52 Q0 -38 0 0Z"/>
<path d="M0 0 Q-46 -6 -54 -28 Q-16 -22 0 0Z"/>
<path d="M0 0 Q46 -6 54 -28 Q16 -22 0 0Z"/>
<path d="M0 2 Q-20 -30 0 -62 Q20 -30 0 2Z"/>
</g></g>
<g><g transform="translate(0 44) scale(1.5)" fill="url(#pale)">
<path d="M0 0 Q-34 -26 -30 -52 Q0 -38 0 0Z"/>
<path d="M0 0 Q34 -26 30 -52 Q0 -38 0 0Z"/>
<path d="M0 0 Q-46 -6 -54 -28 Q-16 -22 0 0Z"/>
<path d="M0 0 Q46 -6 54 -28 Q16 -22 0 0Z"/>
<path d="M0 2 Q-20 -30 0 -62 Q20 -30 0 2Z"/>
</g></g>
<g transform="translate(0 126) scale(0.72)">
<ellipse cx="0" cy="14" rx="52" ry="13" fill="url(#gold)"/>
<path d="M-52 12 Q0 34 52 12 Q26 22 0 22 Q-26 22 -52 12Z" fill="#c8941f"/>
<path d="M0 -30 Q16 -6 9 6 Q0 14 -9 6 Q-16 -6 0 -30Z" fill="#ffdf7a"/>
<path d="M0 -18 Q8 -2 4 5 Q0 9 -4 5 Q-8 -2 0 -18Z" fill="#fff6d8"/>
</g>
</g>
</g>
</svg>
